<svg width="230" height="52" viewBox="0 0 155 35" fill="none" xmlns="http://www.w3.org/2000/svg">
<g clip-path="url(#clip0_2_67)">
<path d="M14.44 18.32H3.56V31H0.199997V3.07996H3.56V15.4H14.44V3.07996H17.8V31H14.44V18.32Z" fill="#07090A"/>
<path d="M23.3844 31V3.07996H40.9844V5.99996H26.7444V15.4H39.7844V18.32H26.7444V31H23.3844Z" fill="#07090A"/>
<path d="M56.2487 5.99996V31H52.8887V5.99996H43.5687V3.07996H65.5687V5.99996H56.2487Z" fill="#07090A"/>
<path d="M69 35L82.2944 0H86L72.7056 35H69Z" fill="#07090A"/>
<path d="M95.0795 25H94.0227C93.9602 24.6961 93.8509 24.429 93.6946 24.1989C93.5412 23.9688 93.3537 23.7756 93.1321 23.6194C92.9134 23.4603 92.6705 23.3409 92.4034 23.2614C92.1364 23.1819 91.858 23.1421 91.5682 23.1421C91.0398 23.1421 90.5611 23.2756 90.1321 23.5426C89.706 23.8097 89.3665 24.2032 89.1136 24.723C88.8636 25.2429 88.7386 25.8807 88.7386 26.6364C88.7386 27.3921 88.8636 28.0299 89.1136 28.5497C89.3665 29.0696 89.706 29.4631 90.1321 29.7301C90.5611 29.9972 91.0398 30.1307 91.5682 30.1307C91.858 30.1307 92.1364 30.0909 92.4034 30.0114C92.6705 29.9319 92.9134 29.814 93.1321 29.6577C93.3537 29.4986 93.5412 29.304 93.6946 29.0739C93.8509 28.8409 93.9602 28.5739 94.0227 28.2728H95.0795C95 28.7188 94.8551 29.1179 94.6449 29.4702C94.4347 29.8225 94.1733 30.1222 93.8608 30.3694C93.5483 30.6137 93.1974 30.7997 92.8082 30.9276C92.4219 31.0554 92.0085 31.1194 91.5682 31.1194C90.8239 31.1194 90.1619 30.9375 89.5824 30.5739C89.0028 30.2103 88.5469 29.6932 88.2145 29.0228C87.8821 28.3523 87.7159 27.5569 87.7159 26.6364C87.7159 25.7159 87.8821 24.9205 88.2145 24.25C88.5469 23.5796 89.0028 23.0625 89.5824 22.6989C90.1619 22.3353 90.8239 22.1534 91.5682 22.1534C92.0085 22.1534 92.4219 22.2174 92.8082 22.3452C93.1974 22.473 93.5483 22.6605 93.8608 22.9077C94.1733 23.152 94.4347 23.4503 94.6449 23.8026C94.8551 24.152 95 24.5512 95.0795 25Z" fill="#07090A"/>
<path d="M97.2673 31V22.2728H100.216C100.898 22.2728 101.458 22.3892 101.895 22.6222C102.333 22.8523 102.656 23.1691 102.867 23.5725C103.077 23.9759 103.182 24.4347 103.182 24.9489C103.182 25.4631 103.077 25.9191 102.867 26.3168C102.656 26.7145 102.334 27.027 101.899 27.2543C101.465 27.4787 100.909 27.5909 100.233 27.5909H97.8468V26.6364H100.199C100.665 26.6364 101.04 26.5682 101.324 26.4319C101.611 26.2955 101.818 26.1023 101.946 25.8523C102.077 25.5995 102.142 25.2983 102.142 24.9489C102.142 24.5995 102.077 24.2941 101.946 24.0327C101.816 23.7713 101.607 23.5696 101.32 23.4276C101.033 23.2827 100.654 23.2103 100.182 23.2103H98.3241V31H97.2673ZM101.375 27.0796L103.523 31H102.296L100.182 27.0796H101.375Z" fill="#07090A"/>
<path d="M104.38 22.2728H105.59L108.011 26.3466H108.113L110.534 22.2728H111.744L108.59 27.4034V31H107.534V27.4034L104.38 22.2728Z" fill="#07090A"/>
<path d="M113.591 31V22.2728H116.539C117.224 22.2728 117.784 22.3963 118.218 22.6435C118.656 22.8878 118.98 23.2188 119.19 23.6364C119.4 24.054 119.505 24.5199 119.505 25.0341C119.505 25.5483 119.4 26.0157 119.19 26.4361C118.983 26.8566 118.662 27.1918 118.227 27.4418C117.792 27.689 117.235 27.8125 116.556 27.8125H114.443V26.875H116.522C116.991 26.875 117.368 26.7941 117.652 26.6321C117.936 26.4702 118.142 26.2515 118.27 25.9759C118.4 25.6975 118.466 25.3836 118.466 25.0341C118.466 24.6847 118.4 24.3722 118.27 24.0966C118.142 23.8211 117.934 23.6051 117.647 23.4489C117.36 23.2898 116.98 23.2103 116.505 23.2103H114.647V31H113.591Z" fill="#07090A"/>
<path d="M121.21 23.2103V22.2728H127.756V23.2103H125.012V31H123.955V23.2103H121.21Z" fill="#07090A"/>
<path d="M129.867 31V22.2728H132.918C133.526 22.2728 134.027 22.3779 134.422 22.5881C134.817 22.7955 135.111 23.0753 135.304 23.4276C135.498 23.777 135.594 24.1648 135.594 24.5909C135.594 24.9659 135.527 25.2756 135.394 25.5199C135.263 25.7642 135.09 25.9574 134.874 26.0995C134.661 26.2415 134.429 26.3466 134.179 26.4148V26.5C134.447 26.5171 134.715 26.6108 134.985 26.7813C135.255 26.9517 135.481 27.1961 135.662 27.5142C135.844 27.8324 135.935 28.2216 135.935 28.6819C135.935 29.1194 135.836 29.5128 135.637 29.8622C135.438 30.2117 135.124 30.4887 134.695 30.6932C134.266 30.8978 133.708 31 133.02 31H129.867ZM130.924 30.0625H133.02C133.711 30.0625 134.201 29.929 134.491 29.662C134.783 29.3921 134.929 29.0654 134.929 28.6819C134.929 28.3864 134.854 28.1137 134.704 27.8637C134.553 27.6108 134.339 27.4091 134.06 27.2586C133.782 27.1051 133.452 27.0284 133.072 27.0284H130.924V30.0625ZM130.924 26.108H132.884C133.202 26.108 133.489 26.0455 133.745 25.9205C134.003 25.7955 134.208 25.6194 134.358 25.3921C134.512 25.1648 134.589 24.8978 134.589 24.5909C134.589 24.2074 134.455 23.8821 134.188 23.6151C133.921 23.3452 133.498 23.2103 132.918 23.2103H130.924V26.108Z" fill="#07090A"/>
<path d="M145.515 26.6364C145.515 27.5569 145.349 28.3523 145.017 29.0228C144.684 29.6932 144.228 30.2103 143.649 30.5739C143.069 30.9375 142.407 31.1194 141.663 31.1194C140.919 31.1194 140.257 30.9375 139.677 30.5739C139.098 30.2103 138.642 29.6932 138.309 29.0228C137.977 28.3523 137.811 27.5569 137.811 26.6364C137.811 25.7159 137.977 24.9205 138.309 24.25C138.642 23.5796 139.098 23.0625 139.677 22.6989C140.257 22.3353 140.919 22.1534 141.663 22.1534C142.407 22.1534 143.069 22.3353 143.649 22.6989C144.228 23.0625 144.684 23.5796 145.017 24.25C145.349 24.9205 145.515 25.7159 145.515 26.6364ZM144.493 26.6364C144.493 25.8807 144.366 25.2429 144.113 24.723C143.863 24.2032 143.524 23.8097 143.095 23.5426C142.669 23.2756 142.191 23.1421 141.663 23.1421C141.135 23.1421 140.656 23.2756 140.227 23.5426C139.801 23.8097 139.461 24.2032 139.208 24.723C138.958 25.2429 138.833 25.8807 138.833 26.6364C138.833 27.3921 138.958 28.0299 139.208 28.5497C139.461 29.0696 139.801 29.4631 140.227 29.7301C140.656 29.9972 141.135 30.1307 141.663 30.1307C142.191 30.1307 142.669 29.9972 143.095 29.7301C143.524 29.4631 143.863 29.0696 144.113 28.5497C144.366 28.0299 144.493 27.3921 144.493 26.6364Z" fill="#07090A"/>
<path d="M146.932 23.2103V22.2728H153.477V23.2103H150.733V31H149.676V23.2103H146.932Z" fill="#07090A"/>
<path d="M93.25 8.95V17H91.15V8.95H88.336V7.228H96.064V8.95H93.25ZM97.5145 17V7.228H103.759V8.95H99.6145V11.19H103.619V12.912H99.6145V15.278H103.759V17H97.5145ZM107.925 17H105.853V7.228H109.633C110.109 7.228 110.534 7.30267 110.907 7.452C111.28 7.592 111.593 7.79733 111.845 8.068C112.106 8.33867 112.302 8.66533 112.433 9.048C112.564 9.43067 112.629 9.86 112.629 10.336C112.629 11.0267 112.48 11.6193 112.181 12.114C111.882 12.6087 111.458 12.9353 110.907 13.094L112.825 17H110.529L108.891 13.374H107.925V17ZM109.129 11.75C109.624 11.75 109.964 11.6567 110.151 11.47C110.347 11.2833 110.445 10.9753 110.445 10.546V10.126C110.445 9.69667 110.347 9.38867 110.151 9.202C109.964 9.01533 109.624 8.922 109.129 8.922H107.925V11.75H109.129ZM119.218 12.646L119.33 9.916H119.204L117.384 14.942L115.564 9.916H115.438L115.55 12.646V17H113.73V7.228H116.208L117.412 10.518H117.524L118.728 7.228H121.038V17H119.218V12.646ZM122.628 17V15.446H124.728V8.782H122.628V7.228H128.928V8.782H126.828V15.446H128.928V17H122.628ZM132.773 10.504H132.619V17H130.827V7.228H133.347L135.573 13.724H135.727V7.228H137.519V17H134.999L132.773 10.504ZM144.457 17L143.841 14.648H141.167L140.565 17H138.437L141.083 7.228H144.051L146.697 17H144.457ZM142.567 9.258H142.455L141.503 12.954H143.519L142.567 9.258ZM148.05 17V7.228H150.164V15.278H154.364V17H148.05Z" fill="#07090A"/>
</g>
<defs>
<clipPath id="clip0_2_67">
<rect width="155" height="35" fill="white"/>
</clipPath>
</defs>
</svg>
